<?xml version="1.0" standalone="no"?>
<!DOCTYPE svg PUBLIC "-//W3C//DTD SVG 20010904//EN"
 "http://www.w3.org/TR/2001/REC-SVG-20010904/DTD/svg10.dtd">
<svg version="1.0" xmlns="http://www.w3.org/2000/svg"
 width="710.000000pt" height="306.000000pt" viewBox="0 0 710.000000 306.000000"
 preserveAspectRatio="xMidYMid meet">

<g transform="translate(0.000000,306.000000) scale(0.100000,-0.100000)"
fill="#000000" stroke="none">
<path d="M3189 2577 c-24 -16 -37 -35 -44 -61 -8 -34 -6 -45 18 -89 16 -27 27
-50 25 -51 -2 -1 -26 -16 -54 -34 -149 -94 -113 -295 59 -318 57 -8 131 16
175 55 l32 29 31 -39 c21 -26 39 -39 55 -39 25 0 24 2 -19 58 l-44 57 23 50
c13 28 26 74 30 103 6 44 4 52 -10 52 -16 0 -19 -10 -31 -83 -8 -47 -26 -89
-36 -85 -13 5 -200 251 -210 276 -15 38 -10 61 16 87 28 29 86 33 140 11 33
-14 35 -14 35 5 0 44 -133 55 -191 16z m109 -333 c45 -59 79 -111 76 -116 -4
-6 -27 -23 -52 -39 -53 -34 -124 -39 -173 -14 -66 34 -91 135 -47 190 21 27
95 85 108 85 4 0 44 -48 88 -106z"/>
<path d="M5573 2584 c-3 -8 0 -33 7 -53 7 -21 9 -49 6 -62 -7 -23 -6 -23 8 -6
18 23 30 89 21 117 -8 24 -33 27 -42 4z"/>
<path d="M1180 2309 l0 -281 118 4 c97 3 124 8 160 26 122 64 115 229 -12 263
l-41 11 31 15 c42 21 64 61 64 120 0 96 -45 123 -210 123 l-110 0 0 -281z
m230 236 c37 -19 50 -43 50 -94 0 -31 -7 -46 -30 -70 -35 -35 -70 -44 -155
-39 l-60 3 -3 108 -3 107 86 0 c57 0 96 -5 115 -15z m1 -245 c57 -16 89 -54
89 -107 0 -87 -84 -137 -218 -131 l-67 3 -3 123 -3 122 83 0 c46 0 99 -5 119
-10z"/>
<path d="M2020 2310 c0 -242 2 -280 15 -280 8 0 15 9 15 20 0 19 2 18 48 -6
87 -47 185 -13 228 80 47 101 22 220 -57 273 -33 22 -47 25 -94 21 -46 -4 -61
-10 -90 -38 l-35 -34 0 122 c0 102 -2 122 -15 122 -13 0 -15 -38 -15 -280z
m220 63 c56 -33 89 -124 70 -194 -32 -118 -137 -162 -226 -94 -33 25 -34 28
-34 93 1 94 13 139 51 178 26 27 41 34 72 34 21 0 52 -7 67 -17z"/>
<path d="M3820 2309 l0 -282 113 6 c139 6 179 20 239 77 128 124 97 386 -55
459 -37 18 -62 21 -170 21 l-127 0 0 -281z m297 215 c56 -45 85 -104 91 -183
5 -80 -8 -135 -47 -188 -43 -59 -101 -83 -216 -90 l-95 -6 0 252 0 253 114 -4
c110 -3 115 -4 153 -34z"/>
<path d="M4990 2490 c0 -55 -2 -100 -3 -100 -2 0 -19 7 -36 16 -45 22 -128 15
-170 -15 -17 -12 -41 -41 -52 -63 -59 -115 -18 -254 85 -293 62 -24 111 -13
153 32 l33 34 0 -35 c0 -25 4 -36 15 -36 13 0 15 38 15 280 0 273 0 280 -20
280 -19 0 -20 -7 -20 -100z m-32 -120 l32 -20 0 -110 c0 -108 0 -110 -31 -144
-39 -45 -84 -55 -136 -30 -102 50 -112 228 -17 303 35 28 107 28 152 1z"/>
<path d="M5730 2404 c-39 -26 -50 -45 -50 -85 0 -47 30 -73 109 -95 121 -33
151 -56 135 -101 -24 -67 -118 -91 -197 -50 -48 25 -48 25 -45 3 2 -16 17 -25
60 -40 76 -24 136 -16 183 26 30 26 35 37 35 73 0 56 -24 76 -136 110 -94 29
-125 56 -105 94 29 53 110 67 181 31 39 -20 40 -20 40 -1 0 43 -158 69 -210
35z"/>
<path d="M1630 2264 c0 -177 9 -204 75 -230 61 -23 110 -12 152 33 l33 34 0
-35 c0 -25 4 -36 15 -36 13 0 15 28 15 190 0 183 -1 190 -20 190 -19 0 -20 -7
-20 -128 0 -146 -13 -185 -71 -214 -48 -25 -74 -22 -111 11 l-33 29 -3 151
c-3 123 -6 151 -18 151 -11 0 -14 -26 -14 -146z"/>
<path d="M2440 2264 c0 -177 9 -204 75 -230 61 -23 110 -12 152 33 l33 34 0
-35 c0 -25 4 -36 15 -36 13 0 15 28 15 190 0 183 -1 190 -20 190 -19 0 -20 -7
-20 -128 0 -146 -13 -185 -71 -214 -48 -25 -74 -22 -111 11 l-33 29 -3 151
c-3 123 -6 151 -18 151 -11 0 -14 -26 -14 -146z"/>
<path d="M4340 2264 c0 -177 9 -204 75 -230 61 -23 110 -12 152 33 l33 34 0
-35 c0 -25 4 -36 15 -36 13 0 15 28 15 190 0 183 -1 190 -20 190 -19 0 -20 -7
-20 -128 0 -146 -13 -185 -71 -214 -48 -25 -74 -22 -111 11 l-33 29 -3 151
c-3 123 -6 151 -18 151 -11 0 -14 -26 -14 -146z"/>
<path d="M5140 2264 c0 -177 9 -204 75 -230 61 -23 110 -12 152 33 l33 34 0
-35 c0 -25 4 -36 15 -36 13 0 15 28 15 190 0 183 -1 190 -20 190 -19 0 -20 -7
-20 -128 0 -146 -13 -185 -71 -214 -48 -25 -74 -22 -111 11 l-33 29 -3 151
c-3 123 -6 151 -18 151 -11 0 -14 -26 -14 -146z"/>
<path d="M4134 1566 c-96 -31 -149 -103 -142 -192 7 -88 56 -128 218 -178 105
-32 147 -57 164 -98 40 -93 -41 -182 -166 -182 -48 -1 -70 6 -137 41 l-81 42
0 -38 c0 -37 2 -39 64 -70 151 -77 319 -40 381 83 43 86 27 162 -45 215 -23
16 -92 47 -153 67 -160 53 -204 103 -163 183 18 34 50 56 103 70 48 13 135 -6
201 -45 l43 -26 -3 39 c-3 35 -7 40 -60 67 -68 34 -161 43 -224 22z"/>
<path d="M690 1215 l0 -355 35 0 35 0 0 298 0 297 54 -100 c29 -55 83 -153
119 -219 l65 -118 25 43 c14 24 69 123 121 219 l96 175 0 -298 0 -297 30 0 30
0 0 355 0 355 -34 0 c-34 0 -35 -1 -116 -157 -46 -87 -98 -186 -117 -221 l-35
-63 -116 220 -117 221 -37 0 -38 0 0 -355z"/>
<path d="M4680 1215 l0 -355 29 0 29 0 4 163 c3 131 7 169 22 197 34 67 108
97 170 69 45 -21 56 -71 56 -259 l0 -170 35 0 35 0 0 149 c0 164 -11 243 -38
280 -60 82 -173 95 -247 29 l-35 -30 0 141 0 141 -30 0 -30 0 0 -355z"/>
<path d="M2729 1526 c-18 -39 0 -91 31 -91 18 0 27 8 34 28 22 62 -39 121 -65
63z"/>
<path d="M2241 1346 c-106 -38 -133 -163 -47 -215 17 -10 71 -31 120 -46 100
-30 142 -61 130 -98 -10 -32 -25 -48 -61 -64 -53 -22 -114 -16 -179 17 -32 16
-60 30 -61 30 -2 0 -3 -15 -3 -33 0 -30 5 -36 46 -56 98 -49 221 -37 286 29
34 34 38 43 38 88 0 45 -4 53 -35 80 -23 21 -67 41 -133 61 -133 41 -163 78
-106 132 38 35 129 33 203 -5 l54 -28 -6 38 c-7 43 -14 49 -81 69 -59 18 -118
18 -165 1z"/>
<path d="M3171 1347 c-48 -19 -108 -72 -133 -120 -18 -33 -23 -59 -23 -122 0
-71 3 -86 31 -135 45 -79 105 -115 193 -115 52 0 77 6 116 26 44 24 50 31 53
63 l3 36 -64 -35 c-114 -63 -196 -42 -244 61 -34 74 -30 153 10 213 57 86 132
102 233 51 32 -16 60 -30 62 -30 1 0 2 15 2 33 0 29 -5 35 -47 56 -57 28 -145
36 -192 18z"/>
<path d="M5425 1348 c-162 -57 -210 -301 -84 -427 111 -110 276 -87 353 49 27
48 31 65 31 130 0 58 -6 86 -23 122 -54 110 -171 163 -277 126z m134 -63 c118
-60 135 -251 32 -338 -39 -32 -70 -41 -116 -34 -118 19 -179 191 -108 304 46
74 126 103 192 68z"/>
<path d="M6070 1349 c-14 -5 -37 -22 -52 -36 l-28 -27 0 32 c0 29 -3 32 -30
32 l-30 0 0 -355 0 -355 35 0 35 0 0 125 c0 69 1 125 3 125 1 0 20 -9 42 -20
101 -51 222 -3 283 114 22 42 27 64 27 126 0 66 -5 83 -31 130 -42 75 -94 110
-170 116 -32 2 -70 -1 -84 -7z m145 -75 c58 -38 90 -155 64 -235 -38 -113
-134 -157 -236 -108 l-43 21 0 113 c0 63 5 126 11 142 12 33 46 72 74 84 30
13 97 4 130 -17z"/>
<path d="M1560 1168 c0 -157 3 -189 19 -224 45 -99 182 -126 266 -52 l35 30 0
-31 c0 -28 3 -31 30 -31 l30 0 0 245 0 245 -35 0 -35 0 0 -161 c0 -173 -7
-204 -55 -249 -28 -26 -102 -38 -133 -21 -47 25 -56 64 -60 254 l-4 177 -29 0
-29 0 0 -182z"/>
<path d="M2730 1105 l0 -245 30 0 30 0 0 245 0 245 -30 0 -30 0 0 -245z"/>
</g>
</svg>
